<svg width="180" height="180" viewBox="0 0 180 180" fill="none" xmlns="http://www.w3.org/2000/svg">
<path d="M77.479 4.96533C84.516 -1.65484 95.4852 -1.65509 102.522 4.96533C102.651 5.08904 102.803 5.24161 103.107 5.53955C103.292 5.71355 103.382 5.80393 103.466 5.88818C107.972 10.1856 114.346 11.8904 120.393 10.4224C120.511 10.3943 120.635 10.3601 120.882 10.2983C121.292 10.1916 121.501 10.1412 121.675 10.0962C131.075 7.88016 140.581 13.3645 143.36 22.6177C143.41 22.7919 143.466 22.9946 143.584 23.4048C143.652 23.6522 143.686 23.7759 143.72 23.894C145.47 29.8621 150.138 34.5313 156.106 36.2808C156.224 36.3145 156.348 36.3482 156.595 36.4155C157.005 36.5335 157.209 36.5895 157.383 36.6401C166.636 39.4191 172.121 48.9263 169.905 58.3257C169.86 58.5 169.808 58.7085 169.702 59.1187C169.64 59.3658 169.607 59.4899 169.579 59.6079C168.111 65.6547 169.815 72.028 174.112 76.5337C174.196 76.618 174.286 76.7086 174.46 76.894C174.758 77.1976 174.911 77.3497 175.035 77.479C181.655 84.5159 181.655 95.4851 175.035 102.522C174.911 102.651 174.758 102.804 174.46 103.107C174.287 103.292 174.196 103.382 174.112 103.466C169.814 107.972 168.11 114.346 169.579 120.393C169.607 120.511 169.64 120.635 169.702 120.882C169.808 121.293 169.86 121.501 169.905 121.675C172.121 131.075 166.636 140.581 157.383 143.36C157.209 143.41 157.005 143.466 156.595 143.584C156.348 143.652 156.224 143.687 156.106 143.72C150.138 145.47 145.47 150.138 143.72 156.106C143.686 156.224 143.652 156.348 143.584 156.595C143.466 157.006 143.41 157.209 143.36 157.383C140.581 166.636 131.075 172.121 121.675 169.905C121.501 169.86 121.292 169.808 120.882 169.702C120.636 169.64 120.511 169.607 120.393 169.579C114.346 168.111 107.972 169.814 103.466 174.112C103.382 174.196 103.292 174.287 103.107 174.46C102.804 174.758 102.651 174.911 102.522 175.035C95.4851 181.655 84.516 181.655 77.479 175.035C77.3497 174.911 77.1976 174.758 76.894 174.46C76.7087 174.286 76.618 174.196 76.5337 174.112C72.0281 169.815 65.6546 168.111 59.6079 169.579C59.49 169.607 59.3656 169.64 59.1187 169.702C58.7087 169.808 58.4999 169.86 58.3257 169.905C48.9263 172.121 39.42 166.636 36.6411 157.383C36.5905 157.209 36.5336 157.006 36.4155 156.595C36.3481 156.348 36.3145 156.224 36.2808 156.106C34.5313 150.138 29.862 145.47 23.894 143.72C23.776 143.687 23.6519 143.652 23.4048 143.584C22.9949 143.467 22.7919 143.41 22.6177 143.36C13.3646 140.581 7.88004 131.075 10.0962 121.675C10.1412 121.501 10.1916 121.293 10.2983 120.882C10.3601 120.635 10.3943 120.511 10.4224 120.393C11.8904 114.346 10.1856 107.972 5.88818 103.466C5.80394 103.382 5.71354 103.292 5.53955 103.107C5.2416 102.803 5.08904 102.651 4.96533 102.522C-1.65513 95.4851 -1.6549 84.516 4.96533 77.479C5.08901 77.3497 5.24178 77.1974 5.53955 76.894C5.7137 76.7087 5.80388 76.618 5.88818 76.5337C10.1856 72.0281 11.8904 65.6547 10.4224 59.6079C10.3942 59.4898 10.3602 59.366 10.2983 59.1187C10.1916 58.7084 10.1412 58.5 10.0962 58.3257C7.87992 48.9262 13.3645 39.419 22.6177 36.6401C22.7918 36.5896 22.995 36.5334 23.4048 36.4155C23.6518 36.3482 23.7761 36.3145 23.894 36.2808C29.862 34.5313 34.5314 29.8621 36.2808 23.894C36.3145 23.776 36.3481 23.652 36.4155 23.4048C36.5335 22.9946 36.5905 22.7919 36.6411 22.6177C39.4199 13.3645 48.9263 7.88003 58.3257 10.0962C58.4999 10.1411 58.7087 10.1917 59.1187 10.2983C59.3657 10.3601 59.4899 10.3943 59.6079 10.4224C65.6547 11.8903 72.0281 10.1855 76.5337 5.88818C76.618 5.80389 76.7087 5.71369 76.894 5.53955C77.1975 5.24176 77.3497 5.08901 77.479 4.96533ZM99.4028 29.6509C94.3715 24.9173 86.529 24.9173 81.4976 29.6509C81.4052 29.7393 81.2964 29.8483 81.0796 30.061C80.9472 30.1854 80.882 30.2498 80.8218 30.3101C77.6004 33.3825 73.0435 34.6016 68.7202 33.5522C68.6359 33.5322 68.5462 33.5075 68.3696 33.4634C68.077 33.3872 67.9277 33.351 67.8032 33.3188C61.0828 31.7344 54.2854 35.6553 52.2983 42.271C52.2622 42.3956 52.2216 42.5411 52.1372 42.8345C52.089 43.0111 52.0646 43.0998 52.0405 43.1841C50.7897 47.4512 47.4511 50.7896 43.1841 52.0405C43.0998 52.0646 43.0108 52.0891 42.8345 52.1372C42.5417 52.2214 42.3964 52.2622 42.272 52.2983C35.656 54.2853 31.7342 61.0826 33.3188 67.8032C33.351 67.9277 33.3871 68.0767 33.4634 68.3696C33.5076 68.5465 33.5321 68.6358 33.5522 68.7202C34.6017 73.0435 33.3825 77.6004 30.3101 80.8218C30.2498 80.882 30.1854 80.9472 30.061 81.0796C29.8483 81.2964 29.7393 81.4052 29.6509 81.4976C24.9172 86.529 24.9172 94.3714 29.6509 99.4028C29.7393 99.4953 29.8481 99.6048 30.061 99.8218C30.1853 99.954 30.2499 100.018 30.3101 100.079C33.3827 103.3 34.6019 107.858 33.5522 112.181C33.5322 112.265 33.5075 112.354 33.4634 112.531C33.387 112.824 33.351 112.974 33.3188 113.098C31.7344 119.819 35.6561 126.615 42.272 128.602C42.3965 128.638 42.5416 128.679 42.8345 128.763C43.0108 128.811 43.0998 128.836 43.1841 128.86C47.4512 130.111 50.7897 133.449 52.0405 137.716C52.0646 137.801 52.089 137.889 52.1372 138.066C52.2216 138.359 52.2621 138.505 52.2983 138.629C54.2853 145.245 61.0828 149.166 67.8032 147.582C67.9277 147.549 68.077 147.513 68.3696 147.437C68.5462 147.393 68.6359 147.369 68.7202 147.349C73.0435 146.3 77.6004 147.518 80.8218 150.59C80.882 150.651 80.947 150.715 81.0796 150.839C81.2964 151.052 81.4051 151.161 81.4976 151.25C86.529 155.983 94.3714 155.983 99.4028 151.25C99.4953 151.161 99.6049 151.052 99.8218 150.839C99.954 150.715 100.018 150.651 100.079 150.59C103.3 147.518 107.858 146.299 112.181 147.349C112.265 147.369 112.354 147.393 112.531 147.437C112.824 147.513 112.974 147.549 113.098 147.582C119.818 149.166 126.615 145.245 128.602 138.629C128.638 138.505 128.679 138.359 128.763 138.066C128.811 137.889 128.836 137.801 128.86 137.716C130.111 133.449 133.449 130.111 137.716 128.86C137.801 128.836 137.889 128.811 138.066 128.763C138.359 128.679 138.505 128.638 138.629 128.602C145.245 126.615 149.166 119.818 147.582 113.098C147.549 112.973 147.513 112.824 147.437 112.531C147.393 112.354 147.369 112.265 147.349 112.181C146.299 107.858 147.518 103.3 150.59 100.079C150.651 100.018 150.715 99.954 150.839 99.8218C151.052 99.6049 151.161 99.4953 151.25 99.4028C155.983 94.3714 155.983 86.5289 151.25 81.4976C151.161 81.4051 151.052 81.2964 150.839 81.0796C150.715 80.947 150.651 80.882 150.59 80.8218C147.518 77.6003 146.3 73.0436 147.349 68.7202C147.369 68.6358 147.393 68.5464 147.437 68.3696C147.513 68.0768 147.549 67.9277 147.582 67.8032C149.166 61.0828 145.245 54.2854 138.629 52.2983C138.505 52.2622 138.359 52.2216 138.066 52.1372C137.889 52.0891 137.801 52.0646 137.716 52.0405C133.449 50.7897 130.111 47.4513 128.86 43.1841C128.836 43.0997 128.811 43.0111 128.763 42.8345C128.679 42.5411 128.638 42.3956 128.602 42.271C126.615 35.6554 119.818 31.7346 113.098 33.3188C112.974 33.351 112.824 33.3871 112.531 33.4634C112.354 33.5075 112.265 33.5322 112.181 33.5522C107.858 34.6019 103.3 33.3826 100.079 30.3101C100.018 30.2499 99.954 30.1853 99.8218 30.061C99.6048 29.8481 99.4953 29.7393 99.4028 29.6509ZM83.1245 39.8052C87.2411 35.9321 93.6583 35.9321 97.7749 39.8052C97.8505 39.8775 97.9402 39.9659 98.1177 40.1401C98.226 40.2419 98.2784 40.295 98.3276 40.3442C100.963 42.8582 104.692 43.8552 108.229 42.9966C108.298 42.9801 108.371 42.9605 108.516 42.9243C108.756 42.8619 108.878 42.8325 108.98 42.8062C114.479 41.5097 120.04 44.7182 121.666 50.1313C121.695 50.2332 121.728 50.3516 121.797 50.5913C121.837 50.7357 121.856 50.8085 121.875 50.8774C122.899 54.3686 125.63 57.1 129.122 58.1235C129.191 58.1433 129.264 58.1632 129.409 58.2026C129.648 58.2716 129.767 58.3049 129.869 58.3345C135.282 59.9601 138.49 65.5213 137.194 71.02C137.168 71.122 137.138 71.244 137.076 71.4839C137.04 71.6283 137.02 71.7011 137.003 71.77C136.145 75.3074 137.142 79.0366 139.656 81.6724C139.705 81.7216 139.758 81.774 139.86 81.8823C140.034 82.0599 140.122 82.1494 140.195 82.2251C144.068 86.3417 144.068 92.7579 140.195 96.8745C140.122 96.9501 140.034 97.0398 139.86 97.2173C139.758 97.3258 139.705 97.3789 139.656 97.4282C137.142 100.064 136.145 103.792 137.003 107.33C137.02 107.399 137.04 107.471 137.076 107.616C137.138 107.856 137.168 107.978 137.194 108.08C138.49 113.578 135.282 119.14 129.869 120.765C129.767 120.795 129.648 120.828 129.409 120.897C129.264 120.936 129.191 120.956 129.122 120.976C125.63 122 122.899 124.731 121.875 128.222C121.856 128.291 121.837 128.364 121.797 128.508C121.728 128.748 121.695 128.867 121.666 128.969C120.04 134.382 114.478 137.591 108.98 136.294C108.878 136.268 108.756 136.238 108.516 136.175C108.371 136.139 108.298 136.119 108.229 136.103C104.692 135.244 100.963 136.241 98.3276 138.755C98.2784 138.805 98.226 138.858 98.1177 138.959C97.9401 139.134 97.8506 139.223 97.7749 139.295C93.6583 143.168 87.241 143.168 83.1245 139.295C83.0489 139.223 82.9603 139.134 82.7827 138.959C82.6742 138.858 82.6211 138.805 82.5718 138.755C79.936 136.241 76.2078 135.244 72.6704 136.103C72.6014 136.119 72.5288 136.139 72.3843 136.175C72.1444 136.238 72.0224 136.268 71.9204 136.294C66.4219 137.591 60.8606 134.382 59.2349 128.969C59.2053 128.867 59.1721 128.748 59.103 128.508C59.0636 128.364 59.0437 128.291 59.0239 128.222C58.0005 124.731 55.2692 121.999 51.7778 120.976C51.7088 120.956 51.6363 120.936 51.4917 120.897C51.2516 120.828 51.1327 120.795 51.0308 120.765C45.6178 119.139 42.4091 113.578 43.7056 108.08C43.7319 107.978 43.7622 107.856 43.8247 107.616C43.8609 107.471 43.8805 107.399 43.897 107.33C44.7558 103.792 43.7585 100.064 41.2446 97.4282C41.1953 97.3789 41.1424 97.3258 41.0405 97.2173C40.8662 97.0396 40.777 96.9502 40.7046 96.8745C36.8319 92.758 36.8319 86.3416 40.7046 82.2251C40.777 82.1494 40.8662 82.0599 41.0405 81.8823C41.1423 81.774 41.1954 81.7216 41.2446 81.6724C43.7587 79.0365 44.7558 75.3075 43.897 71.77C43.8805 71.701 43.8608 71.6285 43.8247 71.4839C43.7622 71.2438 43.7319 71.122 43.7056 71.02C42.4092 65.5214 45.6178 59.9602 51.0308 58.3345C51.1327 58.3049 51.2516 58.2717 51.4917 58.2026C51.6362 58.1632 51.7088 58.1433 51.7778 58.1235C55.2692 57.1001 58.0005 54.3688 59.0239 50.8774C59.0436 50.8085 59.0636 50.7357 59.103 50.5913C59.172 50.3517 59.2053 50.2332 59.2349 50.1313C60.8604 44.7182 66.4217 41.5097 71.9204 42.8062C72.0223 42.8324 72.1445 42.8619 72.3843 42.9243C72.5288 42.9605 72.6014 42.9801 72.6704 42.9966C76.2078 43.8554 79.936 42.8582 82.5718 40.3442C82.6211 40.2949 82.6742 40.2421 82.7827 40.1401C82.9599 39.9663 83.049 39.8775 83.1245 39.8052ZM93.0356 69.0132C91.8582 67.1501 89.1418 67.1501 87.9644 69.0132L82.52 77.6284C82.1103 78.2767 81.4673 78.7428 80.7241 78.9321L70.8481 81.4478C68.7125 81.9918 67.8728 84.5765 69.2808 86.272L75.7925 94.1118C76.2824 94.7018 76.5276 95.4578 76.478 96.2231L75.8188 106.393C75.6766 108.592 77.8748 110.189 79.9224 109.374L89.3901 105.604C90.1027 105.32 90.8973 105.32 91.6099 105.604L101.078 109.374C103.125 110.189 105.323 108.592 105.181 106.393L104.522 96.2231C104.472 95.4578 104.718 94.7019 105.208 94.1118L111.719 86.272C113.127 84.5765 112.287 81.9919 110.152 81.4478L100.276 78.9321C99.5327 78.7428 98.8897 78.2767 98.48 77.6284L93.0356 69.0132Z" fill="black"/>
</svg>
